<?xml version="1.0" standalone="no"?>
<!DOCTYPE svg PUBLIC "-//W3C//DTD SVG 20010904//EN"
 "http://www.w3.org/TR/2001/REC-SVG-20010904/DTD/svg10.dtd">
<svg version="1.0" xmlns="http://www.w3.org/2000/svg"
 width="1000.000000pt" height="1000.000000pt" viewBox="0 0 1000.000000 1000.000000"
 preserveAspectRatio="xMidYMid meet">
<metadata>
Created by potrace 1.14, written by Peter Selinger 2001-2017
</metadata>
<g transform="translate(0.000000,1000.000000) scale(0.100000,-0.100000)"
fill="#000000" stroke="none">
<path d="M4420 9259 c-503 -56 -903 -218 -1280 -517 -204 -163 -359 -339 -550
-627 -62 -93 -124 -183 -139 -198 -50 -54 -90 -67 -244 -77 -500 -34 -919
-218 -1270 -559 -298 -289 -511 -699 -574 -1103 -27 -174 -25 -496 4 -653 52
-286 167 -554 363 -845 109 -163 112 -178 51 -324 -81 -194 -111 -338 -111
-529 0 -328 103 -607 324 -876 63 -76 204 -201 291 -256 232 -149 509 -225
771 -212 66 4 128 9 137 13 12 4 25 -13 55 -74 62 -126 129 -220 232 -323 141
-141 276 -225 467 -289 197 -66 123 -63 2053 -63 1570 0 1756 1 1853 16 429
66 771 336 932 737 39 97 44 105 71 108 175 15 420 85 574 162 462 232 795
659 902 1156 20 95 23 137 23 319 0 184 -3 223 -23 315 -32 140 -73 263 -134
394 -68 147 -67 155 46 446 48 124 101 276 117 338 130 504 39 1003 -264 1451
-90 133 -311 358 -447 454 -259 183 -601 302 -929 323 -160 11 -423 -21 -598
-72 -72 -21 -163 -15 -201 12 -15 11 -112 119 -215 240 -104 120 -237 274
-297 341 -286 319 -685 568 -1105 689 -274 79 -626 112 -885 83z m-120 -3476
c105 -29 209 -91 295 -178 91 -91 143 -174 183 -290 l27 -80 0 -370 c0 -396 1
-385 -54 -524 -54 -134 -191 -281 -330 -351 -109 -55 -195 -75 -321 -74 -132
0 -189 13 -320 76 -70 34 -101 57 -176 132 -78 79 -98 105 -137 186 -41 86
-55 131 -71 227 -5 29 0 37 42 75 239 215 447 508 600 844 54 120 122 286 122
301 0 4 7 19 16 31 16 24 18 24 124 -5z m1827 -10 c205 -74 352 -215 432 -415
47 -117 53 -183 48 -541 -4 -360 -6 -371 -78 -517 -34 -69 -60 -103 -133 -176
-75 -75 -106 -98 -176 -132 -131 -63 -188 -76 -320 -76 -126 -1 -212 19 -321
74 -140 71 -276 215 -330 351 -55 139 -54 128 -54 524 l0 370 27 80 c40 116
92 199 183 290 91 91 196 153 317 185 60 17 96 19 198 16 107 -3 137 -8 207
-33z"/>
<path d="M4272 5272 c-10 -7 -10 -15 -2 -36 26 -70 0 -178 -58 -239 -40 -42
-105 -73 -160 -76 -11 -1 -13 -36 -10 -183 3 -164 6 -188 26 -233 89 -195 341
-240 485 -86 76 81 82 109 82 391 0 228 -1 248 -21 291 -50 107 -157 179 -268
179 -34 0 -67 -4 -74 -8z"/>
<path d="M5591 5272 c-11 -8 -11 -16 -2 -42 27 -79 5 -165 -59 -232 -36 -37
-58 -50 -108 -64 l-64 -18 4 -185 c3 -208 11 -235 86 -314 116 -121 310 -121
423 0 79 85 89 128 89 383 0 248 -12 306 -82 386 -47 54 -120 86 -203 91 -38
2 -76 0 -84 -5z"/>
</g>
</svg>
